<svg xmlns="http://www.w3.org/2000/svg" viewBox="0 0 72 72"><defs><style>.cls-1{fill:#3245df;}.cls-2{fill:none;}</style></defs><title>baidu</title><g id="图层_2" data-name="图层 2"><g id="图层_1-2" data-name="图层 1"><path class="cls-1" d="M18.71,37.47c5.87-1.26,5.08-8.28,4.9-9.81-.29-2.36-3.07-6.5-6.85-6.18-4.75.43-5.45,7.29-5.45,7.29C10.68,31.94,12.86,38.73,18.71,37.47ZM25,49.68a4.85,4.85,0,0,0-.22,2.86,3.23,3.23,0,0,0,2.79,2.58h3.08V47.59H27.32A3.63,3.63,0,0,0,25,49.68Zm4.66-24c3.24,0,5.87-3.72,5.87-8.35S32.86,9,29.62,9s-5.87,3.73-5.87,8.34S26.38,25.69,29.62,25.69Zm14,.56c4.34.56,7.13-4.07,7.67-7.56S49,11.13,46,10.42s-6.91,4.22-7.27,7.44C38.28,21.77,39.26,25.69,43.6,26.25ZM54.22,46.87S47.5,41.69,43.6,36.07c-5.32-8.27-12.86-4.9-15.38-.71s-6.43,6.87-7,7.57-8.1,4.77-6.43,12.19,7.55,7.29,7.55,7.29a32.34,32.34,0,0,0,9.36-.7,19.76,19.76,0,0,1,9.36.27s11.75,3.93,15-3.64-1.82-11.47-1.82-11.47ZM34.12,58.13H26.49a6.64,6.64,0,0,1-4.77-3.3,8.72,8.72,0,0,1-.62-5.27,6.71,6.71,0,0,1,5.5-4.94h4.07v-5l3.45.06V58.13Zm14.23,0H39.56C36.16,57.21,36,54.8,36,54.8V45.07l3.56,0v8.73c.22.94,1.37,1.1,1.37,1.1h3.62V45.07h3.8v13ZM60.78,32.14c0-1.67-1.39-6.73-6.58-6.73s-5.87,4.77-5.87,8.14.27,7.7,6.7,7.56,5.75-7.28,5.75-9Z"/><rect class="cls-2" width="72" height="72"/></g></g></svg>