<?xml version="1.0" encoding="UTF-8" standalone="no"?><!DOCTYPE svg PUBLIC "-//W3C//DTD SVG 1.1//EN" "http://www.w3.org/Graphics/SVG/1.1/DTD/svg11.dtd"><svg width="100%" height="100%" viewBox="0 0 144 144" version="1.1" xmlns="http://www.w3.org/2000/svg" xmlns:xlink="http://www.w3.org/1999/xlink" xml:space="preserve" xmlns:serif="http://www.serif.com/" style="fill-rule:evenodd;clip-rule:evenodd;stroke-linejoin:round;stroke-miterlimit:2;"><circle cx="72" cy="72" r="72" style="fill:#2a2827;"/><ellipse cx="71.504" cy="72.418" rx="53.837" ry="53.847" style="fill:#cf390c;"/><circle cx="72" cy="72" r="38.249" style="fill:#2a2827;"/><path d="M72.704,76.687l11.962,12.867l-23.925,-0l11.963,-12.867Z" style="fill:#2a2827;"/><path d="M72,-0c39.738,-0 72,32.262 72,72c-0,39.738 -32.262,72 -72,72c-39.738,-0 -72,-32.262 -72,-72c-0,-39.738 32.262,-72 72,-72Zm-0,19.44c29.009,-0 52.56,23.551 52.56,52.56c0,29.009 -23.551,52.56 -52.56,52.56c-29.009,0 -52.56,-23.551 -52.56,-52.56c-0,-29.009 23.551,-52.56 52.56,-52.56Z" style="fill:#2a2827;"/><circle cx="72" cy="72" r="52.56" style="fill:#cf390c;"/><path d="M72,33.751c21.11,-0 38.249,17.139 38.249,38.249c0,21.11 -17.139,38.249 -38.249,38.249c-21.11,0 -38.249,-17.139 -38.249,-38.249c-0,-21.11 17.139,-38.249 38.249,-38.249Zm-0,4.207c18.788,0 34.042,15.254 34.042,34.042c-0,18.788 -15.254,34.042 -34.042,34.042c-18.788,-0 -34.042,-15.254 -34.042,-34.042c0,-18.788 15.254,-34.042 34.042,-34.042Z" style="fill:#2a2827;"/><path d="M112.49,36.909l-4.481,-4.429l-63.804,64.556l4.481,4.429l63.804,-64.556Z" style="fill:#2a2827;"/><path d="M43.123,49.058l5.077,-5.221l64.29,62.51l-5.077,5.221l-64.29,-62.51Z" style="fill:#2a2827;"/></svg>