<svg width="22" height="24.000000000000004" xmlns="http://www.w3.org/2000/svg">
 <defs>
  <clipPath id="i0">
   <path id="svg_1" d="m1425,-16l0,796l-1440,0l0,-796l1440,0z"/>
  </clipPath>
  <clipPath id="i1">
   <path id="svg_2" d="m87.873217,1.945508l0,8.153304l6.886183,8.346675l-3.427172,0.031066l-4.787979,-5.889272l-4.759961,5.863912l-3.4017,-0.00951l6.705336,-8.342871l0,-8.153304l2.785293,0zm-51.683302,-0.000634c0.188756,0.000168 0.369704,0.075028 0.502995,0.208094c0.133292,0.133067 0.207994,0.313426 0.207656,0.501358l0,13.948109l1.248097,0.008242l-0.867937,1.820228l-2.971871,0.017118l-0.017193,-13.787706c-0.001054,-0.435691 -0.356469,-0.788135 -0.79407,-0.787434l-2.254215,0l0,5.273653l1.68302,0l0,1.919133l-1.68302,0l0,7.376014l-2.58216,0l0,-7.376014l-1.846673,0l0,-1.919133l1.846673,0l0,-5.273653l-1.735873,0l0,-1.928009l9.264571,0zm-12.133283,5.659762c0.391385,0 0.708961,0.315338 0.710014,0.705014l0.017193,8.254745l1.372907,0.008876l-0.835461,1.859536l-2.419779,0.006345c-0.188807,0.0005 -0.370055,-0.073821 -0.503742,-0.206568c-0.133686,-0.132746 -0.20882,-0.313003 -0.20882,-0.500986l-0.005094,-8.214169l-1.120103,0l0,-1.912793l2.992885,0zm23.081511,-5.659131c0.22053,-0.000458 0.428733,0.101224 0.563356,0.275134c0.112185,0.144926 0.162639,0.326272 0.143576,0.505501l-0.019842,0.106975l-3.532878,13.33566c-0.030284,0.112088 -0.006495,0.231824 0.064368,0.323991c0.056691,0.073734 0.138353,0.123118 0.228439,0.14l0.068886,0.006441l11.877933,0l-1.02968,1.7936l-13.65456,-0.00951c-0.220419,0.000264 -0.428437,-0.101501 -0.562913,-0.275383c-0.112063,-0.144902 -0.162444,-0.326164 -0.143377,-0.505303l0.019837,-0.106921l3.460921,-13.008514c0.044534,-0.168885 0.008031,-0.348783 -0.098861,-0.48721c-0.085513,-0.110741 -0.208366,-0.184959 -0.343878,-0.2105l-0.103622,-0.009839l-3.757025,-0.007608l0,-1.866514l6.81932,0zm27.603314,0.000003c0.35983,0.00096 0.656822,0.267358 0.704091,0.612789l0.00656,0.096029l0,7.319587l-6.304162,0l0,1.210949l6.304162,0l0,1.415099l-6.304162,0l0,1.431584l6.304162,0l0,1.453139l-6.304162,0l0.002547,1.145013l6.304162,0l0,1.80311l-15.038929,0l0,-1.80311l5.98577,0l0,-1.174177l-5.98577,0.027896l0,-1.451871l5.98577,0l0,-1.431584l-6.027797,0l1.90271,-2.626048l-1.19779,0c-0.189036,-0.000336 -0.370176,-0.075511 -0.503486,-0.208952c-0.106647,-0.106753 -0.175678,-0.243784 -0.198682,-0.39069l-0.008492,-0.111712l0,-7.317051l14.373498,0zm-22.74911,7.458434l4.500153,4.861551l-3.867189,0l-4.497606,-4.861551l3.864642,0zm14.409149,0.569971l-1.470971,0l-0.9227,1.210949l2.393671,0l0,-1.210949zm28.12102,-8.028405l-1.995045,8.059471l-2.71843,0l2.002685,-8.059471l2.71079,0zm-13.281404,0l1.993133,8.032209l-2.709516,0l-1.993134,-8.032209l2.709517,0zm-8.539911,1.699767l-9.595699,0l0,1.679479l8.823916,0l-0.789612,1.515906l-8.034304,0l0,1.432852l9.595699,0l0,-4.628237zm-19.339131,-1.699767l3.502312,0.001268l-5.420942,5.271751l-4.01174,0.00951l5.93037,-5.282529zm-28.59415,-0.000634l0,1.977461l-3.704173,0l0,-1.977461l3.704173,0z"/>
  </clipPath>
  <clipPath id="i2">
   <path id="svg_3" d="m15.236898,11.562655c1.477898,0.233387 4.416646,1.602367 3.843522,4.514142l-0.051097,0.227032c-0.294899,1.005775 -0.772271,1.949288 -1.408503,2.783869c-0.941728,1.163962 -4.159761,1.172104 -6.079198,0.655258c-2.084297,-0.560161 -3.590603,-1.870025 -3.698547,-1.966099c0.852637,0.661053 1.902517,1.019801 2.983174,1.019362c2.706445,0 4.900648,-2.203842 4.900648,-4.92225c0.001158,-0.779885 -0.183236,-1.548953 -0.538083,-2.244225c-0.008067,-0.015428 -0.006757,-0.034058 0.003391,-0.048217c0.010148,-0.014158 0.027416,-0.02145 0.044693,-0.018872z"/>
  </clipPath>
  <clipPath id="i3">
   <path id="svg_4" d="m10.907371,1.97381l5.669011,5.543963l0.420327,0.412305c1.294118,1.353279 2.109607,3.089879 2.322754,4.94635c0.002668,0.022588 -0.011556,0.043754 -0.033545,0.049916c-0.021989,0.006163 -0.045214,-0.004508 -0.054772,-0.025165c-0.719626,-1.543048 -1.983876,-1.999644 -3.503267,-2.339974c-1.154345,-0.25826 -1.910278,-0.633438 -2.24425,-0.823957l-0.107535,-0.067985l-0.109334,-0.065216c-2.260316,-1.370134 -2.425728,-3.673811 -2.437367,-3.940091l-0.000854,-3.657578c0.000234,-0.018481 0.011497,-0.035049 0.028643,-0.042133c0.017146,-0.007083 0.036882,-0.003322 0.050189,0.009565z"/>
  </clipPath>
  <clipPath id="i4">
   <path id="svg_5" d="m8.843475,3.882739c0.018016,0.00999 0.027181,0.030673 0.022449,0.050656c-0.061168,0.26054 -0.158318,0.828191 -0.09486,1.604926c0.074252,0.919054 0.373878,2.132844 1.223363,3.484721c0.533504,0.849685 1.284204,1.75441 2.332567,2.675419l0.191601,0.165768l0.197978,0.165769c0.479347,0.495043 0.746456,1.156339 0.744812,1.843971c0,1.46228 -1.180185,2.647411 -2.635791,2.647411c-0.596052,0.00067 -1.174373,-0.201836 -1.638783,-0.57384c-0.017154,-0.014081 -0.02188,-0.03829 -0.011273,-0.057744c0.010607,-0.019454 0.033573,-0.028697 0.054778,-0.022046c0.091971,0.02994 0.188143,0.045112 0.284906,0.044943c0.405897,-0.004478 0.762719,-0.268711 0.883796,-0.654464c0.108969,-0.347179 0.004668,-0.721693 -0.258662,-0.963556l-0.093593,-0.075489c-0.572678,-0.449902 -1.108624,-0.944306 -1.602801,-1.478564c-0.624112,-0.680986 -1.083364,-1.344711 -1.417008,-1.975218c-0.836382,1.032193 -1.221795,2.355361 -1.069852,3.672926c0.151944,1.317565 0.828535,2.519329 1.878122,3.335923c0.114159,0.102913 1.620465,1.411149 3.704762,1.97131c1.920745,0.514892 5.138779,0.50675 6.077235,-0.653304c-1.562241,2.047843 -4.023359,3.368455 -6.789991,3.368455c-4.722051,0 -8.54984,-3.842963 -8.54984,-8.586743c-0.004565,-2.210058 0.846013,-4.336961 2.375128,-5.939007l0.430793,-0.421423l3.705089,-3.623133c0.014573,-0.014527 0.03706,-0.017657 0.055075,-0.007667z"/>
  </clipPath>
 </defs>
 <g>
  <title>background</title>
  <rect fill="none" id="canvas_background" height="26" width="24" y="-1" x="-1"/>
 </g>
 <g>
  <title>Layer 1</title>
  <g id="svg_12">
   <g id="svg_13" clip-path="url(#i2)">
    <polygon id="svg_14" fill="#1652D8" points="7.843074798583984,11.562143325805664 19.153535842895508,11.562143325805664 19.153535842895508,20.07106590270996 7.843074798583984,20.07106590270996 7.843074798583984,11.562143325805664 "/>
   </g>
  </g>
  <g id="svg_15">
   <g id="svg_16" clip-path="url(#i3)">
    <polygon id="svg_17" fill="#EA0100" points="10.82853889465332,1.9607133865356445 19.31978416442871,1.9607133865356445 19.31978416442871,12.928081512451172 10.82853889465332,12.928081512451172 10.82853889465332,1.9607133865356445 "/>
   </g>
  </g>
  <g id="svg_18">
   <g id="svg_19" clip-path="url(#i4)">
    <polygon id="svg_20" fill="#3CC8F9" points="2.277372360229492,3.8769354820251465 17.61722183227539,3.8769354820251465 17.61722183227539,22.460712432861328 2.277372360229492,22.460712432861328 2.277372360229492,3.8769354820251465 "/>
   </g>
  </g>
 </g>
</svg>