<svg xmlns="http://www.w3.org/2000/svg" viewBox="0 0 72 72"><defs><style>.cls-1{fill:#0fb264;}.cls-2{fill:#ff9932;}.cls-3{fill:none;}</style></defs><title>360</title><g id="图层_2" data-name="图层 2"><g id="图层_1-2" data-name="图层 1"><path class="cls-1" d="M35.9,9a27,27,0,1,0,27,27A27,27,0,0,0,35.9,9Zm0,43.34A16.34,16.34,0,1,1,52.25,36h0A16.36,16.36,0,0,1,35.9,52.33Z"/><circle class="cls-2" cx="64.59" cy="57.5" r="5.35"/><path class="cls-2" d="M57.19,39.48a5.36,5.36,0,0,0-6.3,3.05,16.35,16.35,0,0,1-30,0,5.35,5.35,0,0,0-6.3-3.05h0A5.35,5.35,0,0,0,10.88,46a4.74,4.74,0,0,0,.26.75,27,27,0,0,0,49.5,0,5.27,5.27,0,0,0-2.64-7,5.6,5.6,0,0,0-.81-.3Z"/><rect class="cls-3" width="72" height="72"/></g></g></svg>