<?xml version="1.0" encoding="UTF-8"?>
<svg width="36px" height="36px" viewBox="0 0 36 36" version="1.1" xmlns="http://www.w3.org/2000/svg" xmlns:xlink="http://www.w3.org/1999/xlink">
    <title>画板备份 9</title>
    <defs>
        <linearGradient x1="41.7876671%" y1="82.7345591%" x2="62.5649522%" y2="26.9250605%" id="linearGradient-1">
            <stop stop-color="#2075ED" offset="0%"/>
            <stop stop-color="#115BCA" offset="100%"/>
        </linearGradient>
        <linearGradient x1="-0.04490467%" y1="50.0292905%" x2="99.9714069%" y2="50.0292905%" id="linearGradient-2">
            <stop stop-color="#02CEF5" offset="0%"/>
            <stop stop-color="#04CAF5" offset="20.7%"/>
            <stop stop-color="#08BDF4" offset="42.15%"/>
            <stop stop-color="#10A9F3" offset="63.95%"/>
            <stop stop-color="#1B8CF2" offset="85.84%"/>
            <stop stop-color="#2375F1" offset="100%"/>
        </linearGradient>
        <linearGradient x1="54.8254034%" y1="71.2029581%" x2="41.672628%" y2="15.9559573%" id="linearGradient-3">
            <stop stop-color="#2177F1" offset="0%"/>
            <stop stop-color="#1971ED" offset="41.85%"/>
            <stop stop-color="#0B66E6" offset="83.9%"/>
        </linearGradient>
        <linearGradient x1="64.0488233%" y1="22.5739332%" x2="35.6226979%" y2="81.8420566%" id="linearGradient-4">
            <stop stop-color="#02CEF5" offset="0%"/>
            <stop stop-color="#04CAF5" offset="20.7%"/>
            <stop stop-color="#08BDF4" offset="42.15%"/>
            <stop stop-color="#10A9F3" offset="63.95%"/>
            <stop stop-color="#1B8CF2" offset="85.84%"/>
            <stop stop-color="#2375F1" offset="100%"/>
        </linearGradient>
        <linearGradient x1="-0.0816816338%" y1="50.0009947%" x2="99.8657326%" y2="50.0009947%" id="linearGradient-5">
            <stop stop-color="#00D6F5" offset="0%"/>
            <stop stop-color="#5FE9FC" offset="100%"/>
        </linearGradient>
    </defs>
    <g id="画板备份-9" stroke="none" stroke-width="1" fill="none" fill-rule="evenodd">
        <g id="编组-8备份">
            <rect id="矩形" x="0" y="0" width="36" height="36"/>
            <g id="编组-31" transform="translate(0.000000, 4.000000)" fill-rule="nonzero">
                <path d="M23.423236,23.3358842 C24.191247,22.6006792 24.9188365,21.8120049 25.6060042,20.9965958 C28.4624664,17.5611836 31.4806151,12.4414839 32.1543091,5.61076171 L32.1408352,5.61076171 C32.1677829,5.39688391 32.1812568,5.18300611 32.1812568,4.95576095 C32.1812568,3.96657614 31.9522009,3.03086078 31.5345107,2.20208431 C31.8039882,2.29565585 32.3025217,2.48279892 32.3159956,2.48279892 C32.3294695,2.48279892 32.3429433,2.49616628 32.3429433,2.49616628 C34.9164541,3.45861637 36.4120546,6.11872148 35.9000472,8.79219394 C35.0781406,13.0430152 32.9762156,19.1786345 27.6136121,24.953335 C25.6733736,27.0520109 22.5474339,27.6000727 20.0143448,26.2499692 C19.987397,26.2366018 19.9739232,26.2232344 19.9469754,26.2098671 C20.7554081,25.7019073 22.2240608,24.4052732 22.9651241,23.736905 C23.1268107,23.6165988 23.2750233,23.4829251 23.423236,23.3358842 Z" id="路径备份" fill="url(#linearGradient-1)"/>
                <g id="编组备份-2">
                    <path d="M26.0236945,4.63494426 C26.1719071,3.44524901 26.07759,1.46687938 25.9832728,0.745041818 C22.3318518,0.0900410639 16.5919797,-0.538224966 10.0032533,0.745041818 L10.0032533,0.745041818 C9.72030184,0.798511268 9.46429816,0.851980717 9.19482059,0.905450166 L9.19482059,0.905450166 C7.30847765,1.29310367 5.90719431,2.9506566 5.90719431,4.92902623 C5.90719431,5.06269985 5.90719431,5.19637348 5.92066819,5.31667974 L5.92066819,5.31667974 C6.06888085,6.68015069 6.35183229,8.32433626 6.87731354,10.1289302 L6.87731354,10.1289302 C6.76952252,9.76801139 6.71562701,9.38035789 6.71562701,8.97933702 C6.71562701,6.98760003 8.1438581,5.3300471 10.0436749,4.94239359 C13.4929877,4.18045394 18.7208525,3.68586153 24.0565083,4.56810745 L24.0565083,4.56810745 C24.9996797,4.75525052 25.7137953,5.58402698 25.7137953,6.58657916 C25.7137953,6.72025278 25.7003214,6.85392641 25.6733736,6.98760003 L25.6733736,6.98760003 C25.8215863,6.27912982 25.9293773,5.58402698 25.9967467,4.91565887 C25.9967467,4.91565887 25.9967467,4.91565887 25.9967467,4.92902623 C25.9967467,4.82208733 26.0102206,4.72851579 26.0236945,4.63494426 Z" id="路径" fill="url(#linearGradient-2)"/>
                    <path d="M10.3266264,6.90739585 C10.3131525,6.80045696 10.2996786,6.70688542 10.2996786,6.59994652 C10.2996786,5.58402698 11.027268,4.75525052 11.9973873,4.58147481 L11.9973873,4.58147481 C11.2832717,4.68841371 10.6230517,4.82208733 10.0167272,4.95576095 C10.0167272,4.95576095 10.0167272,4.95576095 10.0167272,4.95576095 L10.0167272,4.95576095 L10.0167272,4.95576095 L10.0167272,4.95576095 C8.13038422,5.34341446 6.70215313,7.00096739 6.70215313,8.99270438 C6.70215313,9.39372525 6.75604864,9.78137876 6.86383967,10.1422975 C6.86383967,10.1422975 6.86383967,10.1422975 6.86383967,10.1422975 C7.8339589,13.4841381 9.63945858,17.3339385 12.9405587,20.8495548 C14.1801555,20.194554 15.3523829,19.419247 16.4302932,18.5370011 C12.913611,14.9812827 11.0811635,10.7170941 10.3266264,6.90739585 Z" id="形状" fill="url(#linearGradient-3)"/>
                    <path d="M26.9803398,0.945552253 C26.6569667,0.878715442 26.3335937,0.81187863 25.969799,0.745041818 C25.969799,0.745041818 25.969799,0.745041818 25.969799,0.745041818 C24.9188365,0.557898746 23.6927135,0.370755673 22.3318518,0.23708205 C24.4068291,0.464327209 26.0236945,2.20208431 26.0236945,4.32749492 C26.0236945,4.52800536 26.0102206,4.74188316 25.9832728,4.94239359 C25.9832728,4.94239359 25.9832728,4.92902623 25.9832728,4.92902623 C25.3500006,10.7170941 22.1297437,18.4300622 13.8567825,22.7209855 L13.8567825,22.7209855 C13.5873049,22.8412918 13.2908796,22.9081286 12.9809804,22.9081286 C12.3746559,22.9081286 11.8357007,22.6541487 11.4584321,22.2397605 L11.4584321,22.2397605 C11.4584321,22.2397605 11.4584321,22.2397605 11.4584321,22.2531278 C11.7683313,22.5873119 12.0378089,22.8546591 12.0378089,22.8546591 C12.0378089,22.8546591 12.1051783,22.9348633 12.5363424,23.3492515 C12.5363424,23.3492515 12.5363424,23.3492515 12.5363424,23.3492515 C12.5363424,23.3492515 12.5363424,23.3492515 12.5363424,23.3492515 L12.5363424,23.3492515 C12.5363424,23.3492515 12.5363424,23.3492515 12.5228685,23.3492515 C13.0887714,23.883946 14.8942711,25.5414989 16.012603,26.2366018 C22.9112286,22.4402709 29.1900558,15.3288341 30.0929079,4.99586304 C30.0929079,4.96912832 30.0929079,4.95576095 30.0929079,4.92902623 C30.1062796,3.00412605 28.7858395,1.38667521 26.9803398,0.945552253 Z" id="路径" fill="url(#linearGradient-4)"/>
                    <path d="M16.4437671,24.6993551 C14.9751143,24.6993551 13.6277265,24.1913954 12.5632901,23.3492515 L12.5632901,23.3492515 C12.5632901,23.3492515 12.5632901,23.3492515 12.5632901,23.3492515 C12.132126,22.9214959 12.0647567,22.8546591 12.0647567,22.8546591 C12.0647567,22.8546591 11.808753,22.5873119 11.4853799,22.2531278 C8.34596627,18.8711851 4.61370201,13.3370971 3.84569095,5.62412907 L3.85916483,5.62412907 C3.83221707,5.41025127 3.81874319,5.19637348 3.81874319,4.96912832 C3.81874319,3.9799435 4.04779912,3.04422814 4.46548935,2.21545168 C4.19601178,2.30902321 3.69747829,2.49616628 3.68400441,2.49616628 C3.67053053,2.49616628 3.65705665,2.50953365 3.65705665,2.50953365 C1.08354592,3.47198373 -0.412054563,6.13208884 0.0999528083,8.80556131 C0.921859379,13.0563825 3.02378438,19.1920018 8.3863879,24.9667024 C10.3266264,27.0653783 13.4525661,27.6134401 15.9856552,26.2633365 C16.012603,26.2499692 16.0260768,26.2366018 16.0530246,26.2232344 L16.0530246,26.2232344 C17.5216773,25.4078253 18.9768562,24.4453752 20.3511917,23.3358842 C19.2598076,24.1913954 17.9124198,24.6993551 16.4437671,24.6993551 Z" id="路径" fill="url(#linearGradient-5)"/>
                </g>
            </g>
        </g>
    </g>
</svg>