<svg xmlns="http://www.w3.org/2000/svg" viewBox="0 0 72 72"><defs><style>.cls-1{fill:#fd6e17;}.cls-2{fill:none;}</style></defs><title>sogou</title><g id="图层_2" data-name="图层 2"><g id="图层_1-2" data-name="图层 1"><path class="cls-1" d="M56.6,52.61a22.09,22.09,0,0,1-4.18,4.13,2.38,2.38,0,0,0-.25,3.59h0a2.37,2.37,0,0,0,3.09.2,27.1,27.1,0,0,0,5.1-5.05,2.38,2.38,0,0,0-.22-3.13h0A2.37,2.37,0,0,0,56.6,52.61Z"/><path class="cls-1" d="M49.8,27.34c.11-.15,2.13-3.19-4.73-4.85S21,21,21,29.59s16.46,8.94,18.89,11,.07,4.68-7,3.91S22.22,40.79,20.8,44,25.42,49.9,36.43,50s15.1-5.14,15.1-8.46-4.8-7-13.56-9.12-7.75-4-4.69-5.44,10.4.69,12.5,1.19C48.06,28.65,49,28.5,49.8,27.34Z"/><path class="cls-1" d="M46.7,55.51a22.26,22.26,0,1,1,8.69-8.6,2.19,2.19,0,0,0,.53,2.77l.32.25a2.15,2.15,0,0,0,3.22-.6A26.92,26.92,0,1,0,49.09,59.62a2.16,2.16,0,0,0,.67-3.17l-.25-.32A2.17,2.17,0,0,0,46.7,55.51Z"/><rect class="cls-2" width="72" height="72"/></g></g></svg>